<svg width="300" height="80" viewBox="0 0 300 80" fill="none" xmlns="http://www.w3.org/2000/svg">
<path d="M38.9566 20.1496C37.2916 19.2946 35.4692 18.5522 33.4893 17.9222C31.5093 17.2922 29.5744 16.9772 27.6844 16.9772C25.0745 16.9772 22.9821 17.5847 21.4071 18.7997C19.8772 20.0146 19.1122 21.6346 19.1122 23.6595C19.1122 25.1895 19.6072 26.4944 20.5972 27.5744C21.5871 28.6094 22.8921 29.5093 24.512 30.2743C26.132 31.0393 27.8194 31.7593 29.5744 32.4342C31.1043 33.0192 32.6118 33.6717 34.0967 34.3917C35.5817 35.1116 36.9092 36.0116 38.0791 37.0916C39.2941 38.1715 40.239 39.499 40.914 41.074C41.634 42.6489 41.994 44.6063 41.994 46.9463C41.994 49.5112 41.3415 51.8511 40.0366 53.9661C38.7766 56.081 36.9542 57.7459 34.5692 58.9609C32.1843 60.1759 29.3494 60.7833 26.0645 60.7833C23.9046 60.7833 21.8346 60.5358 19.8547 60.0409C17.9198 59.5459 16.1198 58.9159 14.4549 58.1509C12.7899 57.3409 11.305 56.5085 10 55.6535L12.9024 50.5237C13.9824 51.2886 15.2198 52.0311 16.6148 52.7511C18.0097 53.4261 19.4722 53.9886 21.0022 54.4385C22.5321 54.8435 24.0171 55.046 25.457 55.046C26.987 55.046 28.4944 54.776 29.9794 54.236C31.5093 53.6511 32.7693 52.7736 33.7593 51.6036C34.7492 50.4337 35.2442 48.8812 35.2442 46.9463C35.2442 45.2813 34.7942 43.9089 33.8942 42.8289C33.0393 41.7039 31.8918 40.759 30.4519 39.994C29.0119 39.184 27.4819 38.464 25.862 37.8341C24.332 37.2491 22.7796 36.6191 21.2046 35.9441C19.6297 35.2241 18.1672 34.3692 16.8173 33.3792C15.4673 32.3442 14.3874 31.0843 13.5774 29.5993C12.7674 28.1144 12.3624 26.3144 12.3624 24.1995C12.3624 21.6346 12.9699 19.4071 14.1849 17.5172C15.4448 15.5823 17.1548 14.0748 19.3147 12.9948C21.4746 11.8699 23.9496 11.2624 26.7395 11.1724C29.8894 11.1724 32.6568 11.5549 35.0417 12.3199C37.4716 13.0848 39.6091 14.0298 41.454 15.1548L38.9566 20.1496Z" fill="#532D63"/>
<path d="M51.4458 60.2434V8H57.5881V38.779L57.4531 37.6316C58.3981 35.7866 59.838 34.2567 61.773 33.0417C63.7529 31.8268 66.0703 31.2193 68.7253 31.2193C71.3802 31.2193 73.5401 32.0067 75.2051 33.5817C76.915 35.1116 77.7925 37.1141 77.8375 39.589V60.2434H71.4927V41.8164C71.4477 40.2865 70.9977 39.049 70.1427 38.1041C69.3327 37.1141 68.0503 36.6191 66.2953 36.6191C64.6754 36.6191 63.2129 37.0916 61.908 38.0366C60.603 38.9365 59.568 40.174 58.8031 41.7489C58.0831 43.3239 57.7231 45.1238 57.7231 47.1488V60.2434H51.4458Z" fill="#532D63"/>
<path d="M86.3243 46.0013C86.3243 43.2114 86.9767 40.6915 88.2817 38.4415C89.6317 36.1916 91.4766 34.4142 93.8165 33.1092C96.1565 31.8043 98.8114 31.1518 101.781 31.1518C104.841 31.1518 107.519 31.8043 109.814 33.1092C112.108 34.4142 113.886 36.1916 115.146 38.4415C116.406 40.6915 117.036 43.2114 117.036 46.0013C117.036 48.7912 116.406 51.3336 115.146 53.6286C113.886 55.8785 112.086 57.6559 109.746 58.9609C107.451 60.2659 104.774 60.9183 101.714 60.9183C98.7439 60.9183 96.089 60.3109 93.749 59.0959C91.4541 57.8359 89.6317 56.1035 88.2817 53.8986C86.9767 51.6486 86.3243 49.0162 86.3243 46.0013ZM92.6016 46.0688C92.6016 47.8687 93.0066 49.5112 93.8165 50.9961C94.6265 52.4361 95.7065 53.5836 97.0564 54.4385C98.4514 55.2935 99.9813 55.721 101.646 55.721C103.401 55.721 104.954 55.2935 106.304 54.4385C107.699 53.5836 108.779 52.4361 109.544 50.9961C110.309 49.5112 110.691 47.8687 110.691 46.0688C110.691 44.2689 110.309 42.6489 109.544 41.209C108.779 39.724 107.699 38.554 106.304 37.6991C104.954 36.7991 103.401 36.3491 101.646 36.3491C99.9363 36.3491 98.3839 36.7991 96.9889 37.6991C95.639 38.599 94.559 39.7915 93.749 41.2765C92.9841 42.7164 92.6016 44.3139 92.6016 46.0688Z" fill="#532D63"/>
<path d="M131.138 32.2992L131.745 40.399L131.408 39.319C132.128 37.6091 133.163 36.1691 134.512 34.9992C135.907 33.7842 137.347 32.8617 138.832 32.2317C140.362 31.5568 141.69 31.2193 142.815 31.2193L142.477 37.4291C140.362 37.2941 138.495 37.6991 136.875 38.644C135.3 39.589 134.04 40.849 133.095 42.4239C132.195 43.9989 131.745 45.6863 131.745 47.4863V60.2434H125.535V32.2992H131.138Z" fill="#532D63"/>
<path d="M153.613 20.0146H159.89V32.4342H167.585V37.3616H159.89V60.2434H153.613V37.3616H148.483V32.4342H153.613V20.0146Z" fill="#532D63"/>
<path d="M175.71 60.2434V8.94497H178.882V60.2434H175.71ZM184.957 43.0989L197.242 60.2434H193.529L182.73 44.8538L184.957 43.0989ZM177.802 50.6587L177.532 47.4863L193.664 33.3117L195.622 34.9992L177.802 50.6587Z" fill="#532D63"/>
<path d="M216.188 60.7833C213.443 60.7833 211.013 60.1759 208.898 58.9609C206.783 57.7459 205.118 56.1035 203.903 54.0336C202.733 51.9186 202.148 49.5562 202.148 46.9463C202.148 44.3814 202.778 42.0414 204.038 39.9265C205.298 37.8116 206.985 36.1241 209.1 34.8642C211.26 33.6042 213.645 32.9742 216.255 32.9742C219.405 32.9742 222.037 33.8967 224.152 35.7416C226.312 37.5866 227.865 39.994 228.81 42.9639L205.725 51.8736L204.78 49.5787L225.907 41.344L225.232 42.2889C224.467 40.489 223.297 38.9365 221.722 37.6316C220.192 36.3266 218.302 35.6741 216.053 35.6741C214.028 35.6741 212.205 36.1691 210.585 37.1591C208.965 38.1491 207.66 39.4765 206.67 41.1415C205.725 42.8064 205.253 44.6963 205.253 46.8113C205.253 48.7912 205.703 50.6362 206.603 52.3461C207.548 54.0561 208.853 55.4285 210.518 56.4635C212.183 57.4984 214.095 58.0159 216.255 58.0159C217.695 58.0159 219.067 57.7459 220.372 57.206C221.722 56.666 222.915 55.9685 223.95 55.1135L225.57 57.4084C224.31 58.3984 222.847 59.2084 221.182 59.8384C219.562 60.4683 217.897 60.7833 216.188 60.7833Z" fill="#532D63"/>
<path d="M240.035 72.933L257.247 33.8517H260.352L243.342 72.933H240.035ZM245.975 60.5133L233.488 33.8517H237.065L248.472 58.8259L245.975 60.5133Z" fill="#532D63"/>
<path d="M259.334 59.5151C259.334 59.3152 259.405 59.1439 259.548 59.0011C259.691 58.8583 259.855 58.7869 260.041 58.7869C260.226 58.7869 260.39 58.8583 260.533 59.0011C260.69 59.1439 260.769 59.3152 260.769 59.5151C260.769 59.7293 260.69 59.9078 260.533 60.0506C260.39 60.1791 260.226 60.2434 260.041 60.2434C259.855 60.2434 259.691 60.1791 259.548 60.0506C259.405 59.9078 259.334 59.7293 259.334 59.5151Z" fill="#532D63"/>
<path d="M262.826 56.0025C262.826 55.1886 263.019 54.4461 263.404 53.775C263.804 53.1039 264.339 52.5756 265.011 52.19C265.696 51.7902 266.46 51.5903 267.302 51.5903C268.159 51.5903 268.923 51.7902 269.594 52.19C270.265 52.5756 270.794 53.1039 271.179 53.775C271.565 54.4461 271.757 55.1886 271.757 56.0025C271.757 56.8164 271.565 57.5589 271.179 58.23C270.794 58.9011 270.258 59.4366 269.573 59.8364C268.902 60.2219 268.145 60.4147 267.302 60.4147C266.446 60.4147 265.682 60.2291 265.011 59.8578C264.339 59.4723 263.804 58.9511 263.404 58.2943C263.019 57.6232 262.826 56.8592 262.826 56.0025ZM263.833 56.0239C263.833 56.6808 263.982 57.2805 264.282 57.8231C264.596 58.3514 265.011 58.7726 265.525 59.0868C266.053 59.4009 266.638 59.558 267.281 59.558C267.923 59.558 268.502 59.4009 269.016 59.0868C269.544 58.7726 269.958 58.3514 270.258 57.8231C270.572 57.2805 270.729 56.6808 270.729 56.0239C270.729 55.3671 270.572 54.7745 270.258 54.2462C269.958 53.7036 269.544 53.2752 269.016 52.9611C268.502 52.6327 267.923 52.4685 267.281 52.4685C266.624 52.4685 266.031 52.6398 265.503 52.9825C264.989 53.3109 264.582 53.7464 264.282 54.289C263.982 54.8316 263.833 55.4099 263.833 56.0239Z" fill="#532D63"/>
<path d="M275.625 51.8687L275.732 54.439L275.603 54.1177C275.789 53.6036 276.081 53.161 276.481 52.7897C276.881 52.4185 277.324 52.1329 277.809 51.933C278.309 51.7331 278.787 51.6331 279.244 51.6331L279.201 52.6184C278.559 52.6184 277.973 52.7612 277.445 53.0468C276.931 53.3323 276.517 53.7179 276.203 54.2034C275.903 54.6746 275.753 55.21 275.753 55.8097V60.2434H274.746V51.8687H275.625Z" fill="#532D63"/>
<path d="M285.459 64.3343C284.988 64.3343 284.538 64.2772 284.11 64.1629C283.682 64.063 283.26 63.8845 282.846 63.6275C282.432 63.3705 282.004 63.0349 281.561 62.6208L282.161 61.9354C282.775 62.5208 283.346 62.9135 283.874 63.1134C284.403 63.3276 284.917 63.4347 285.416 63.4347C286.287 63.4347 286.98 63.2919 287.494 63.0063C288.008 62.735 288.379 62.3638 288.608 61.8926C288.836 61.4356 288.958 60.9216 288.972 60.3504L288.993 57.6303L289.229 57.8873C288.943 58.6298 288.429 59.2367 287.687 59.7079C286.959 60.1791 286.13 60.4147 285.202 60.4147C284.417 60.4147 283.696 60.2219 283.039 59.8364C282.396 59.4366 281.882 58.9083 281.497 58.2514C281.111 57.5803 280.919 56.8378 280.919 56.0239C280.919 55.1529 281.118 54.389 281.518 53.7322C281.918 53.0753 282.461 52.5613 283.146 52.19C283.831 51.8045 284.588 51.6117 285.416 51.6117C286.188 51.6117 286.916 51.8116 287.601 52.2114C288.301 52.6113 288.808 53.1396 289.122 53.7964L288.993 54.2676L289.1 51.8687H290V60.3719C290 61.0573 289.843 61.6998 289.529 62.2995C289.229 62.9135 288.743 63.4061 288.072 63.7774C287.416 64.1487 286.545 64.3343 285.459 64.3343ZM281.925 56.0025C281.925 56.6593 282.082 57.2591 282.396 57.8017C282.711 58.33 283.132 58.7583 283.66 59.0868C284.203 59.4009 284.802 59.558 285.459 59.558C286.088 59.558 286.659 59.4223 287.173 59.151C287.687 58.8654 288.108 58.487 288.436 58.0158C288.765 57.5446 288.951 57.0377 288.993 56.4951V55.2529C288.879 54.7103 288.651 54.2319 288.308 53.8178C287.98 53.4037 287.565 53.0753 287.066 52.8326C286.58 52.5898 286.045 52.4685 285.459 52.4685C284.802 52.4685 284.203 52.6184 283.66 52.9183C283.132 53.2181 282.711 53.6322 282.396 54.1605C282.082 54.6888 281.925 55.3028 281.925 56.0025Z" fill="#532D63"/>
</svg>
