<?xml version="1.0" standalone="no"?>
<!DOCTYPE svg PUBLIC "-//W3C//DTD SVG 20010904//EN"
 "http://www.w3.org/TR/2001/REC-SVG-20010904/DTD/svg10.dtd">
<svg version="1.0" xmlns="http://www.w3.org/2000/svg"
 width="700.000000pt" height="700.000000pt" viewBox="0 0 700.000000 700.000000"
 preserveAspectRatio="xMidYMid meet">
<metadata>
Created by potrace 1.14, written by Peter Selinger 2001-2017
</metadata>
<g transform="translate(0.000000,700.000000) scale(0.100000,-0.100000)"
fill="#000000" stroke="none">
<path d="M1200 6993 c-70 -7 -235 -45 -304 -70 -445 -160 -762 -524 -868 -994
l-23 -104 0 -2320 c0 -2194 1 -2325 18 -2408 113 -555 521 -960 1082 -1074 86
-17 204 -18 2395 -18 2191 0 2309 1 2395 18 191 39 358 107 515 212 99 66 292
259 358 360 99 150 172 328 209 510 17 85 18 208 18 2400 l0 2310 -23 102
c-120 544 -502 931 -1040 1055 l-97 22 -2300 2 c-1265 0 -2316 -1 -2335 -3z
m1117 -1107 c54 -14 1073 -485 1073 -495 0 -3 -27 -20 -59 -38 -157 -86 -361
-271 -474 -430 -280 -393 -357 -900 -207 -1354 75 -227 188 -413 353 -586 l98
-102 -92 -198 c-131 -283 -155 -329 -196 -374 -114 -126 -286 -171 -443 -116
-36 13 -373 167 -749 343 -630 294 -689 323 -743 372 -67 63 -113 147 -129
239 -22 127 -36 93 558 1367 300 644 561 1192 580 1218 31 44 98 100 150 127
74 38 194 50 280 27z m1995 -691 c185 -32 382 -116 526 -225 202 -152 364
-398 432 -656 91 -348 0 -745 -237 -1036 l-54 -67 370 -726 c204 -400 371
-732 371 -737 0 -19 -152 -503 -160 -512 -5 -5 -203 53 -457 134 -246 79 -483
154 -525 167 -46 14 -78 29 -78 37 0 7 36 124 80 259 44 134 80 249 80 254 0
5 -117 47 -260 93 -143 46 -260 88 -260 94 0 6 38 126 84 266 82 249 84 256
67 284 l-16 28 -150 -1 c-113 -1 -172 4 -240 18 -418 88 -739 373 -883 783
-44 124 -62 232 -62 373 0 376 171 722 466 943 136 102 353 197 519 227 96 18
285 18 387 0z"/>
<path d="M2281 5402 c-30 -56 -1091 -2325 -1088 -2328 8 -8 288 -136 291 -133
2 2 143 303 314 669 292 627 756 1682 749 1703 -1 5 -30 20 -62 32 -211 80
-194 76 -204 57z"/>
<path d="M1835 3253 c-99 -207 -181 -379 -183 -383 -4 -11 292 -140 300 -132
18 18 366 758 360 764 -9 9 -277 128 -288 128 -5 0 -90 -170 -189 -377z"/>
<path d="M3890 4840 c-141 -30 -259 -137 -305 -279 -28 -85 -18 -210 23 -294
37 -74 114 -152 187 -187 195 -94 440 -9 537 187 28 56 33 79 36 157 4 104
-14 169 -72 253 -85 124 -259 193 -406 163z"/>
</g>
</svg>
