<?xml version="1.0" standalone="no"?>
<!DOCTYPE svg PUBLIC "-//W3C//DTD SVG 20010904//EN"
 "http://www.w3.org/TR/2001/REC-SVG-20010904/DTD/svg10.dtd">
<svg version="1.0" xmlns="http://www.w3.org/2000/svg"
 width="1478.000000pt" height="1478.000000pt" viewBox="0 0 1478.000000 1478.000000"
 preserveAspectRatio="xMidYMid meet">
<metadata>
Created by potrace 1.14, written by Peter Selinger 2001-2017
</metadata>
<g transform="translate(0.000000,1478.000000) scale(0.100000,-0.100000)"
fill="#000000" stroke="none">
<path d="M7155 13435 c-135 -21 -235 -53 -360 -115 -132 -66 -223 -129 -320
-225 -130 -128 -243 -310 -299 -481 l-27 -81 -87 -18 c-117 -24 -330 -84 -477
-135 -846 -292 -1594 -875 -2091 -1630 -351 -534 -554 -1083 -646 -1745 -17
-126 -21 -218 -25 -582 -4 -375 -3 -442 11 -513 55 -272 211 -502 441 -651
l61 -39 -53 -55 c-60 -64 -97 -135 -112 -219 -15 -79 -15 -2500 -1 -2577 24
-128 119 -253 234 -309 196 -95 415 -37 547 144 32 44 30 47 58 -74 43 -187
135 -438 229 -625 416 -833 1195 -1435 2092 -1619 295 -60 311 -61 1105 -61
647 0 744 2 855 18 374 53 648 136 965 292 432 212 781 499 1079 887 245 319
452 759 535 1138 19 87 19 86 50 44 132 -182 350 -239 549 -143 115 56 208
178 231 303 16 85 15 2514 0 2588 -23 108 -98 220 -189 281 -23 15 -24 17 -7
27 61 38 176 143 232 213 123 154 194 329 215 528 20 200 7 726 -25 986 -95
767 -391 1467 -884 2088 -127 160 -463 495 -631 629 -508 405 -1121 695 -1721
816 l-57 11 -32 92 c-156 448 -539 758 -1010 816 -111 14 -335 12 -435 -4z
m2478 -4128 c243 -61 435 -161 597 -314 177 -167 293 -364 358 -608 l26 -100
4 -673 3 -672 40 -27 c60 -40 124 -37 221 10 98 47 156 58 250 48 111 -13 178
-55 224 -141 18 -33 19 -84 22 -1154 2 -1019 1 -1124 -14 -1170 -66 -197 -368
-226 -483 -46 -70 110 -156 185 -234 204 -33 8 -31 13 -46 -132 -36 -355 -165
-733 -367 -1073 -160 -269 -439 -578 -695 -770 -361 -269 -764 -438 -1224
-512 -136 -21 -161 -22 -880 -22 -719 0 -744 1 -880 23 -169 27 -329 67 -488
122 -865 298 -1524 1023 -1742 1914 -28 117 -65 346 -65 409 0 45 -13 47 -85
13 -59 -28 -98 -64 -176 -167 -77 -102 -120 -124 -239 -124 -71 0 -93 4 -134
25 -27 14 -61 40 -77 60 -62 75 -60 17 -57 1246 l3 1119 22 40 c81 150 276
179 486 73 78 -39 140 -40 202 -4 l45 27 0 627 c0 692 4 745 60 915 67 197
159 347 305 492 190 191 419 308 681 349 74 12 436 14 2179 12 1929 -2 2095
-3 2158 -19z"/>
<path d="M5127 6746 c-54 -15 -112 -64 -133 -113 -19 -44 -18 -128 3 -171 24
-51 142 -166 236 -230 204 -140 452 -216 747 -229 472 -20 892 164 1025 449
90 194 -104 377 -287 271 -18 -10 -53 -49 -78 -86 -67 -102 -145 -148 -320
-193 -233 -60 -528 -35 -738 61 -91 42 -192 113 -232 164 -58 71 -139 99 -223
77z"/>
<path d="M7897 6747 c-120 -38 -180 -172 -127 -283 25 -50 161 -183 245 -239
392 -260 996 -298 1420 -91 130 64 225 140 289 229 59 83 76 124 76 187 0 118
-83 202 -200 204 -79 1 -135 -34 -188 -118 -46 -74 -109 -121 -213 -160 -245
-92 -575 -84 -822 20 -90 38 -163 88 -248 169 -58 55 -86 74 -122 83 -54 14
-61 14 -110 -1z"/>
<path d="M6451 4047 c-103 -39 -158 -164 -115 -265 42 -101 217 -210 445 -276
191 -55 323 -71 594 -70 283 0 411 16 625 80 136 41 318 127 379 180 72 63 96
138 69 225 -13 46 -68 106 -114 125 -67 28 -110 19 -254 -54 -206 -104 -366
-140 -650 -149 -330 -10 -590 46 -764 164 -59 40 -77 47 -125 50 -31 1 -71 -3
-90 -10z"/>
</g>
</svg>
