<?xml version="1.0" standalone="no"?>
<!DOCTYPE svg PUBLIC "-//W3C//DTD SVG 20010904//EN"
 "http://www.w3.org/TR/2001/REC-SVG-20010904/DTD/svg10.dtd">
<svg version="1.0" xmlns="http://www.w3.org/2000/svg"
 width="700.000000pt" height="700.000000pt" viewBox="0 0 700.000000 700.000000"
 preserveAspectRatio="xMidYMid meet">
<metadata>
Created by potrace 1.14, written by Peter Selinger 2001-2017
</metadata>
<g transform="translate(0.000000,700.000000) scale(0.100000,-0.100000)"
fill="#000000" stroke="none">
<path d="M1115 6984 c-267 -48 -506 -170 -704 -359 -160 -155 -277 -339 -345
-546 -71 -219 -67 -43 -64 -2624 l3 -2320 27 -102 c125 -470 448 -820 893
-966 201 -66 -18 -61 2520 -64 2552 -4 2409 -7 2620 62 503 165 857 592 925
1115 8 60 10 757 7 2380 -3 2132 -4 2300 -20 2365 -47 190 -109 336 -202 476
-212 319 -554 535 -930 589 -45 6 -890 9 -2360 9 -1938 -1 -2302 -3 -2370 -15z
m4755 -59 c460 -75 859 -416 1004 -860 66 -200 60 16 63 -2518 4 -2544 7
-2398 -61 -2602 -69 -206 -158 -349 -315 -506 -157 -157 -300 -246 -506 -315
-202 -67 -62 -64 -2560 -64 -2485 0 -2340 -3 -2543 61 -395 126 -698 427 -832
827 -63 189 -60 53 -60 2552 0 2496 -3 2356 60 2553 126 394 442 707 839 831
179 56 62 54 2531 55 2010 1 2296 -1 2380 -14z"/>
<path d="M3355 6249 c-77 -15 -207 -83 -269 -139 -67 -62 -128 -151 -156 -229
l-21 -57 -62 -13 c-93 -19 -281 -83 -387 -133 -589 -276 -1004 -829 -1106
-1473 -8 -55 -18 -193 -21 -306 -5 -171 -3 -218 11 -281 26 -117 102 -230 194
-288 l38 -24 -25 -25 c-52 -56 -51 -44 -51 -715 0 -416 4 -634 11 -653 12 -33
64 -90 99 -108 78 -40 184 -21 242 43 l35 39 17 -71 c22 -93 91 -262 144 -353
158 -270 404 -486 690 -605 232 -97 445 -124 892 -115 371 8 516 36 737 142
156 74 280 162 398 280 192 193 320 417 385 673 l11 43 27 -29 c101 -108 283
-80 343 52 17 38 19 79 19 659 0 680 2 658 -62 724 l-32 33 57 52 c74 69 122
151 143 246 14 63 16 110 11 281 -10 359 -65 596 -202 873 -255 514 -706 881
-1264 1027 l-105 28 -26 64 c-65 160 -202 290 -359 340 -77 24 -274 34 -356
18z m1224 -1964 c162 -39 317 -162 386 -306 58 -122 65 -176 65 -510 0 -226 3
-299 13 -307 28 -23 63 -23 126 3 98 40 177 21 207 -50 21 -50 21 -1049 0
-1099 -19 -47 -51 -66 -109 -66 -62 0 -79 10 -118 66 -32 47 -81 84 -111 84
-14 0 -18 -9 -18 -40 0 -23 -7 -76 -16 -118 -59 -293 -213 -552 -435 -736
-156 -128 -320 -211 -521 -263 -100 -25 -113 -26 -466 -30 -236 -3 -393 -1
-447 6 -235 32 -440 118 -630 266 -267 208 -434 509 -480 868 -6 44 -8 47 -28
41 -39 -12 -67 -36 -98 -81 -35 -50 -61 -63 -124 -63 -35 0 -52 6 -77 29 l-33
29 0 557 0 557 33 29 c27 24 41 29 86 29 32 0 71 -8 97 -20 55 -24 91 -25 118
-2 20 16 20 28 24 352 3 316 4 338 25 394 42 114 110 207 197 273 78 59 122
80 208 103 68 18 127 19 1067 19 856 1 1004 -1 1059 -14z"/>
<path d="M2401 3074 c-29 -21 -51 -71 -44 -106 6 -33 71 -100 137 -143 234
-150 625 -126 781 47 52 57 69 101 55 144 -15 45 -54 74 -98 74 -30 0 -43 -8
-86 -55 -69 -74 -125 -97 -246 -103 -156 -7 -261 25 -359 112 -57 51 -97 59
-140 30z"/>
<path d="M3718 3074 c-35 -18 -48 -43 -48 -90 0 -33 8 -45 58 -94 113 -109
259 -162 447 -162 119 0 227 22 305 62 85 43 170 144 170 200 0 101 -131 133
-190 47 -33 -49 -70 -72 -145 -92 -160 -41 -362 0 -446 90 -50 54 -101 67
-151 39z"/>
<path d="M3037 1799 c-22 -13 -47 -61 -47 -93 0 -59 111 -134 255 -172 101
-27 399 -27 500 0 91 24 207 77 240 110 57 57 13 166 -67 166 -19 0 -65 -15
-102 -34 -97 -49 -225 -71 -370 -63 -123 6 -195 24 -273 68 -54 30 -104 36
-136 18z"/>
</g>
</svg>
